<svg width="27" height="27" viewBox="0 0 27 27" fill="none" xmlns="http://www.w3.org/2000/svg">
<path d="M5.25126 19.9178H21.2452M19.9123 25.25C20.2658 25.25 20.6048 25.1096 20.8548 24.8596C21.1047 24.6096 21.2452 24.2705 21.2452 23.917V16.7852C21.2452 16.176 21.6663 15.6602 22.2141 15.3976C23.3483 14.8564 24.255 13.932 24.774 12.7873C25.293 11.6427 25.3911 10.3515 25.0509 9.14157C24.7108 7.93166 23.9542 6.88081 22.9148 6.17449C21.8753 5.46817 20.6199 5.15179 19.3699 5.28117C18.8551 4.08438 18.0009 3.06473 16.9129 2.34828C15.8249 1.63183 14.5509 1.25 13.2482 1.25C11.9456 1.25 10.6715 1.63183 9.58352 2.34828C8.49553 3.06473 7.64134 4.08438 7.12655 5.28117C5.87714 5.15269 4.62249 5.46953 3.58382 6.17582C2.54514 6.8821 1.78914 7.93248 1.4491 9.14177C1.10906 10.351 1.20683 11.6416 1.72515 12.7858C2.24348 13.93 3.14909 14.8545 4.2823 15.3962C4.8301 15.6602 5.25127 16.176 5.25127 16.7839V23.917C5.25127 24.2705 5.39169 24.6096 5.64164 24.8596C5.8916 25.1096 6.23061 25.25 6.58409 25.25H19.9123Z" stroke="#F59E0B" stroke-width="2.5" stroke-linecap="round" stroke-linejoin="round"/>
</svg>
